<?xml version="1.0" encoding="UTF-8"?><svg id="Layer_2" xmlns="http://www.w3.org/2000/svg" viewBox="0 0 575.13 150"><defs><style>.cls-1{fill:#1c1c1c;}.cls-2{fill:#5b8497;}</style></defs><g id="Logos"><g><g><g><path class="cls-1" d="M206.57,51.89c1.96-1.12,3.53-2.65,4.69-4.57,1.16-1.93,1.74-4.03,1.74-6.32,0-2.4-.58-4.57-1.74-6.49-1.16-1.92-2.74-3.45-4.72-4.58-1.98-1.12-4.17-1.69-6.58-1.69h-17.38v40.04h7.26v-14.7h7.68l8.28,14.7,8.81,.06-9.19-15.88c.39-.17,.78-.35,1.16-.56Zm-16.73-16.96h8.87c1.33,0,2.52,.27,3.55,.8,1.03,.53,1.83,1.26,2.4,2.17,.57,.92,.86,2,.86,3.26,0,1.11-.23,2.12-.69,3.03-.46,.91-1.1,1.63-1.92,2.14-.82,.51-1.78,.77-2.89,.77h-10.18v-12.18Z"/><path class="cls-1" d="M259.21,62.95c1.79-1.87,3.18-4.06,4.18-6.58,.99-2.52,1.49-5.24,1.49-8.18s-.5-5.71-1.49-8.21c-.99-2.5-2.38-4.68-4.18-6.55-1.79-1.87-3.91-3.32-6.35-4.35-2.44-1.03-5.11-1.54-8.01-1.54s-5.51,.51-7.95,1.54c-2.44,1.03-4.57,2.47-6.38,4.32-1.81,1.85-3.21,4.03-4.2,6.55-.99,2.52-1.49,5.26-1.49,8.23s.49,5.72,1.49,8.23c.99,2.52,2.39,4.7,4.2,6.55,1.81,1.85,3.94,3.29,6.38,4.32,2.44,1.03,5.09,1.54,7.95,1.54s5.57-.51,8.01-1.54c2.44-1.03,4.56-2.48,6.35-4.35Zm-14.35-1.2c-1.79,0-3.45-.33-4.98-1-1.53-.67-2.84-1.61-3.95-2.83-1.11-1.22-1.96-2.66-2.57-4.32-.61-1.66-.92-3.46-.92-5.4s.3-3.79,.92-5.43c.61-1.64,1.47-3.07,2.57-4.29,1.11-1.22,2.42-2.16,3.95-2.83,1.53-.67,3.18-1,4.98-1s3.5,.33,5,1c1.5,.67,2.81,1.62,3.92,2.86,1.11,1.24,1.97,2.68,2.6,4.32,.63,1.64,.94,3.43,.94,5.38s-.31,3.74-.94,5.38c-.63,1.64-1.5,3.08-2.6,4.32-1.11,1.24-2.41,2.19-3.92,2.86-1.51,.67-3.17,1-5,1Z"/><path class="cls-1" d="M305.42,52.06c-.61-1.24-1.51-2.34-2.69-3.32-1.18-.97-2.61-1.81-4.29-2.52-1.68-.71-3.57-1.27-5.66-1.69-1.26-.27-2.38-.57-3.37-.92-.99-.34-1.8-.74-2.43-1.2-.63-.46-1.12-.98-1.46-1.57-.34-.59-.51-1.27-.51-2.03,0-.99,.29-1.84,.86-2.55,.57-.7,1.36-1.25,2.37-1.63,1.01-.38,2.2-.57,3.58-.57,1.22,0,2.38,.2,3.49,.6,1.11,.4,2.14,.99,3.09,1.77,.95,.78,1.81,1.76,2.57,2.94l4.92-4.86c-.88-1.49-1.99-2.75-3.35-3.8-1.35-1.05-2.92-1.84-4.69-2.37-1.77-.53-3.78-.8-6.03-.8-1.98,0-3.83,.29-5.55,.86-1.72,.57-3.22,1.37-4.52,2.4-1.3,1.03-2.32,2.25-3.06,3.66-.74,1.41-1.12,2.95-1.12,4.63s.25,3.17,.74,4.49c.49,1.31,1.28,2.5,2.34,3.54,1.07,1.05,2.38,1.92,3.95,2.63,1.56,.71,3.39,1.27,5.49,1.69,1.11,.23,2.11,.48,3.03,.74,.92,.27,1.73,.59,2.46,.97,.72,.38,1.34,.79,1.83,1.23,.49,.44,.87,.94,1.11,1.49,.25,.55,.37,1.16,.37,1.8,0,.91-.31,1.72-.91,2.43-.61,.71-1.45,1.26-2.52,1.66-1.07,.4-2.25,.6-3.55,.6-2.25,0-4.27-.5-6.06-1.49-1.79-.99-3.62-2.78-5.49-5.37l-4.86,5.49c1.22,1.68,2.61,3.11,4.17,4.29,1.56,1.18,3.32,2.07,5.26,2.66,1.94,.59,4.08,.89,6.4,.89,3.01,0,5.64-.51,7.89-1.51,2.25-1.01,3.99-2.46,5.23-4.35,1.24-1.89,1.86-4.15,1.86-6.78,0-1.52-.3-2.91-.91-4.15Z"/><path class="cls-1" d="M347.91,56.21c0-1.52-.3-2.91-.91-4.15-.61-1.24-1.51-2.34-2.69-3.32-1.18-.97-2.61-1.81-4.29-2.52-1.68-.71-3.57-1.27-5.66-1.69-1.26-.27-2.38-.57-3.37-.92-.99-.34-1.8-.74-2.43-1.2-.63-.46-1.12-.98-1.46-1.57-.34-.59-.51-1.27-.51-2.03,0-.99,.29-1.84,.86-2.55,.57-.7,1.36-1.25,2.37-1.63,1.01-.38,2.2-.57,3.58-.57,1.22,0,2.38,.2,3.49,.6,1.11,.4,2.14,.99,3.09,1.77,.95,.78,1.81,1.76,2.57,2.94l4.92-4.86c-.88-1.49-1.99-2.75-3.35-3.8-1.35-1.05-2.92-1.84-4.69-2.37-1.77-.53-3.78-.8-6.03-.8-1.98,0-3.83,.29-5.55,.86-1.72,.57-3.22,1.37-4.52,2.4-1.3,1.03-2.32,2.25-3.06,3.66-.74,1.41-1.11,2.95-1.11,4.63s.25,3.17,.74,4.49c.49,1.31,1.28,2.5,2.34,3.54,1.07,1.05,2.38,1.92,3.95,2.63,1.56,.71,3.39,1.27,5.49,1.69,1.11,.23,2.11,.48,3.03,.74,.92,.27,1.73,.59,2.46,.97,.72,.38,1.34,.79,1.83,1.23,.49,.44,.87,.94,1.12,1.49,.25,.55,.37,1.16,.37,1.8,0,.91-.31,1.72-.91,2.43-.61,.71-1.45,1.26-2.52,1.66-1.07,.4-2.25,.6-3.55,.6-2.25,0-4.27-.5-6.06-1.49-1.79-.99-3.62-2.78-5.49-5.37l-4.86,5.49c1.22,1.68,2.61,3.11,4.17,4.29,1.56,1.18,3.32,2.07,5.26,2.66,1.94,.59,4.08,.89,6.4,.89,3.01,0,5.64-.51,7.89-1.51,2.25-1.01,3.99-2.46,5.23-4.35,1.24-1.89,1.86-4.15,1.86-6.78Z"/><path class="cls-1" d="M411.97,65.24c1.22-.99,2.15-2.23,2.77-3.72,.63-1.49,.94-3.2,.94-5.15,0-1.83-.37-3.46-1.12-4.89-.74-1.43-1.78-2.63-3.12-3.6-.87-.63-1.85-1.13-2.91-1.51,1.32-.6,2.42-1.43,3.26-2.52,1.18-1.52,1.77-3.39,1.77-5.6s-.47-3.96-1.4-5.46c-.93-1.51-2.31-2.64-4.12-3.4-1.81-.76-4.03-1.14-6.66-1.14h-17.04v40.04h17.61c2.1,0,3.98-.26,5.66-.77,1.68-.51,3.13-1.27,4.34-2.26Zm-20.36-30.31h8.52c1.98,0,3.49,.43,4.52,1.29,1.03,.86,1.54,2.05,1.54,3.57,0,.95-.23,1.79-.69,2.52-.46,.72-1.1,1.3-1.91,1.71-.82,.42-1.78,.63-2.89,.63h-9.09v-9.72Zm13.58,26.02c-.97,.42-2.16,.63-3.57,.63h-10.01v-10.52h9.72c1.41,0,2.63,.2,3.66,.6,1.03,.4,1.82,.98,2.37,1.74,.55,.76,.83,1.68,.83,2.75,0,1.14-.26,2.13-.77,2.94-.51,.82-1.26,1.44-2.23,1.86Z"/><path class="cls-1" d="M445.42,68.62c3.2,0,6.04-.68,8.52-2.03,2.48-1.35,4.43-3.22,5.86-5.6,1.43-2.38,2.14-5.08,2.14-8.09V28.18h-7.21v24.19c0,1.79-.41,3.38-1.23,4.77-.82,1.39-1.94,2.51-3.35,3.35-1.41,.84-2.99,1.26-4.75,1.26-1.6,0-3.09-.42-4.46-1.26-1.37-.84-2.47-1.95-3.29-3.35-.82-1.39-1.23-2.98-1.23-4.77V28.18h-7.49v24.71c0,3.01,.71,5.71,2.14,8.09,1.43,2.38,3.38,4.25,5.86,5.6,2.48,1.35,5.3,2.03,8.46,2.03Z"/><polygon class="cls-1" points="497.35 61.7 490.77 61.7 490.77 34.82 497.35 34.82 497.35 28.24 476.76 28.24 476.76 34.82 483.34 34.82 483.34 61.7 476.76 61.7 476.76 68.27 497.35 68.27 497.35 61.7"/><polygon class="cls-1" points="520 28.24 512.56 28.24 512.56 68.27 538.47 68.27 538.47 61.41 520 61.41 520 28.24"/><polygon class="cls-1" points="544.48 28.24 544.48 35.1 555.92 35.1 555.92 68.27 563.35 68.27 563.35 35.1 575.13 35.1 575.13 28.24 544.48 28.24"/></g><g><path class="cls-1" d="M189.29,98.22c1.01-1.07,2.22-1.9,3.62-2.49,1.4-.59,2.91-.89,4.53-.89,1.04,0,2.08,.17,3.12,.52s2.03,.84,2.97,1.47c.94,.63,1.77,1.39,2.49,2.25l2.34-2.43c-.75-1.01-1.71-1.91-2.88-2.69-1.17-.78-2.45-1.39-3.84-1.84-1.39-.45-2.79-.67-4.2-.67-2.14,0-4.1,.38-5.89,1.13-1.79,.75-3.37,1.83-4.72,3.23-1.36,1.4-2.41,3.04-3.14,4.9-.74,1.86-1.1,3.91-1.1,6.13s.37,4.33,1.1,6.24c.74,1.91,1.77,3.56,3.1,4.96,1.33,1.4,2.9,2.49,4.72,3.25,1.82,.76,3.81,1.15,5.98,1.15,1.33,0,2.66-.18,3.99-.54,1.33-.36,2.55-.85,3.66-1.47,1.11-.62,2-1.34,2.66-2.14l-1.73-2.82c-.61,.69-1.34,1.31-2.21,1.86-.87,.55-1.82,.97-2.86,1.28-1.04,.3-2.08,.45-3.12,.45-1.76,0-3.36-.29-4.79-.89-1.43-.59-2.67-1.43-3.73-2.51-1.06-1.08-1.86-2.38-2.43-3.88-.56-1.5-.84-3.15-.84-4.94s.28-3.34,.84-4.81c.56-1.47,1.35-2.75,2.36-3.81Z"/><path class="cls-1" d="M238.92,110.01c0,1.7-.38,3.24-1.13,4.59-.75,1.36-1.79,2.43-3.1,3.21-1.32,.78-2.81,1.17-4.49,1.17-1.59,0-3.03-.39-4.31-1.17-1.29-.78-2.3-1.85-3.06-3.21-.75-1.36-1.13-2.89-1.13-4.59v-18.33h-3.38v18.72c0,2.28,.51,4.33,1.54,6.13,1.03,1.81,2.44,3.22,4.23,4.25,1.79,1.03,3.83,1.54,6.11,1.54s4.37-.51,6.18-1.54c1.8-1.02,3.22-2.44,4.25-4.25,1.02-1.8,1.54-3.85,1.54-6.13v-18.72h-3.25v18.33Z"/><path class="cls-1" d="M271.75,108.03c-.85-.68-1.88-1.26-3.08-1.75-1.2-.49-2.55-.91-4.05-1.26-1.27-.29-2.36-.6-3.27-.93-.91-.33-1.65-.71-2.21-1.13-.56-.42-.98-.91-1.23-1.47-.26-.57-.39-1.21-.39-1.93,0-.98,.28-1.86,.82-2.62,.55-.77,1.31-1.37,2.28-1.8,.97-.43,2.09-.65,3.36-.65,1.1,0,2.1,.18,3.01,.54,.91,.36,1.75,.89,2.51,1.58s1.45,1.52,2.06,2.47l2.38-2.34c-.69-1.13-1.52-2.09-2.47-2.9-.95-.81-2.05-1.42-3.27-1.84-1.23-.42-2.62-.63-4.18-.63-1.39,0-2.69,.2-3.9,.61-1.21,.41-2.27,.98-3.16,1.71-.89,.74-1.6,1.61-2.1,2.62-.51,1.01-.76,2.11-.76,3.29s.2,2.32,.59,3.23c.39,.91,.97,1.71,1.73,2.4,.76,.69,1.7,1.28,2.82,1.75,1.11,.48,2.4,.89,3.88,1.23,1.01,.26,1.93,.52,2.75,.78,.82,.26,1.55,.55,2.19,.87,.64,.32,1.17,.68,1.6,1.08,.43,.4,.76,.87,.98,1.39,.22,.52,.33,1.11,.33,1.78,0,1.01-.3,1.91-.91,2.69-.61,.78-1.44,1.39-2.51,1.82-1.07,.43-2.25,.65-3.55,.65-1.79,0-3.4-.39-4.83-1.17-1.43-.78-2.82-2.14-4.18-4.07l-2.34,2.6c.87,1.27,1.86,2.34,2.99,3.21,1.13,.87,2.37,1.52,3.73,1.95,1.36,.43,2.8,.65,4.33,.65,2.14,0,4.01-.38,5.61-1.13,1.6-.75,2.85-1.8,3.75-3.14,.89-1.34,1.34-2.91,1.34-4.7,0-1.15-.22-2.18-.67-3.08-.45-.89-1.1-1.68-1.95-2.36Z"/><polygon class="cls-1" points="282.34 94.97 291.01 94.97 291.01 122.01 294.39 122.01 294.39 94.97 303.4 94.97 303.4 91.67 282.34 91.67 282.34 94.97"/><path class="cls-1" d="M335.37,95.77c-1.34-1.4-2.92-2.49-4.72-3.25-1.81-.77-3.79-1.15-5.96-1.15s-4.11,.38-5.92,1.15c-1.81,.77-3.38,1.85-4.72,3.25-1.34,1.4-2.38,3.05-3.12,4.94-.74,1.89-1.1,3.97-1.1,6.22s.37,4.33,1.1,6.22c.74,1.89,1.78,3.53,3.12,4.92,1.34,1.39,2.92,2.46,4.72,3.23,1.8,.76,3.78,1.15,5.92,1.15s4.15-.39,5.96-1.15c1.8-.77,3.38-1.85,4.72-3.25,1.34-1.4,2.38-3.05,3.12-4.94,.74-1.89,1.11-3.95,1.11-6.17s-.37-4.33-1.11-6.22c-.74-1.89-1.78-3.54-3.12-4.94Zm-.13,16.03c-.56,1.49-1.35,2.78-2.36,3.88-1.01,1.1-2.22,1.94-3.62,2.54-1.4,.59-2.93,.89-4.57,.89s-3.17-.29-4.57-.89c-1.4-.59-2.61-1.44-3.62-2.54-1.01-1.1-1.79-2.39-2.34-3.88-.55-1.49-.82-3.11-.82-4.87s.27-3.43,.82-4.92c.55-1.49,1.33-2.78,2.34-3.88,1.01-1.1,2.22-1.95,3.62-2.56,1.4-.61,2.93-.91,4.57-.91s3.17,.3,4.57,.91c1.4,.61,2.61,1.46,3.62,2.56,1.01,1.1,1.8,2.39,2.36,3.88,.56,1.49,.84,3.13,.84,4.92s-.28,3.39-.84,4.87Z"/><path class="cls-1" d="M364.68,109.33l-10.87-17.66h-3.29v30.34h3.38v-13.87c0-2.8-.04-5.22-.13-7.26-.05-1.13-.12-2.25-.22-3.35l9.84,15.69h2.34l10.03-15.74c-.1,1.21-.18,2.43-.24,3.65-.09,2.08-.13,4.42-.13,7.02v13.87h3.38v-30.34h-3.08l-11.02,17.66Z"/><polygon class="cls-1" points="428.78 105.24 411.88 105.24 411.88 91.67 408.5 91.67 408.5 122.01 411.88 122.01 411.88 108.53 428.78 108.53 428.78 122.01 432.16 122.01 432.16 91.67 428.78 91.67 428.78 105.24"/><path class="cls-1" d="M468.63,95.77c-1.34-1.4-2.92-2.49-4.72-3.25-1.81-.77-3.79-1.15-5.96-1.15s-4.11,.38-5.92,1.15c-1.81,.77-3.38,1.85-4.72,3.25-1.34,1.4-2.38,3.05-3.12,4.94-.74,1.89-1.1,3.97-1.1,6.22s.37,4.33,1.1,6.22c.74,1.89,1.78,3.53,3.12,4.92,1.34,1.39,2.92,2.46,4.72,3.23,1.8,.76,3.78,1.15,5.92,1.15s4.15-.39,5.96-1.15c1.8-.77,3.38-1.85,4.72-3.25,1.34-1.4,2.38-3.05,3.12-4.94,.74-1.89,1.11-3.95,1.11-6.17s-.37-4.33-1.11-6.22c-.74-1.89-1.78-3.54-3.12-4.94Zm-.13,16.03c-.56,1.49-1.35,2.78-2.36,3.88-1.01,1.1-2.22,1.94-3.62,2.54-1.4,.59-2.93,.89-4.57,.89s-3.17-.29-4.57-.89c-1.4-.59-2.61-1.44-3.62-2.54-1.01-1.1-1.79-2.39-2.34-3.88-.55-1.49-.82-3.11-.82-4.87s.27-3.43,.82-4.92c.55-1.49,1.33-2.78,2.34-3.88,1.01-1.1,2.22-1.95,3.62-2.56,1.4-.61,2.93-.91,4.57-.91s3.17,.3,4.57,.91c1.4,.61,2.61,1.46,3.62,2.56,1.01,1.1,1.8,2.39,2.36,3.88,.56,1.49,.84,3.13,.84,4.92s-.28,3.39-.84,4.87Z"/><path class="cls-1" d="M497.94,109.33l-10.87-17.66h-3.3v30.34h3.38v-13.87c0-2.8-.04-5.22-.13-7.26-.05-1.13-.12-2.25-.22-3.35l9.84,15.69h2.34l10.03-15.74c-.1,1.21-.18,2.43-.23,3.65-.09,2.08-.13,4.42-.13,7.02v13.87h3.38v-30.34h-3.08l-11.02,17.66Z"/><polygon class="cls-1" points="525.29 122.01 543.58 122.01 543.58 118.72 528.67 118.72 528.67 108.06 541.24 108.06 541.24 104.76 528.67 104.76 528.67 94.97 543.67 94.97 543.67 91.67 525.29 91.67 525.29 122.01"/><path class="cls-1" d="M572.51,108.03c-.85-.68-1.88-1.26-3.08-1.75-1.2-.49-2.55-.91-4.05-1.26-1.27-.29-2.36-.6-3.27-.93-.91-.33-1.65-.71-2.21-1.13-.56-.42-.98-.91-1.23-1.47-.26-.57-.39-1.21-.39-1.93,0-.98,.28-1.86,.82-2.62,.55-.77,1.31-1.37,2.28-1.8,.97-.43,2.09-.65,3.36-.65,1.1,0,2.1,.18,3.01,.54,.91,.36,1.75,.89,2.51,1.58,.77,.69,1.45,1.52,2.06,2.47l2.38-2.34c-.69-1.13-1.52-2.09-2.47-2.9-.95-.81-2.05-1.42-3.27-1.84-1.23-.42-2.62-.63-4.18-.63-1.39,0-2.69,.2-3.9,.61-1.21,.41-2.27,.98-3.16,1.71-.89,.74-1.6,1.61-2.1,2.62-.51,1.01-.76,2.11-.76,3.29s.2,2.32,.59,3.23c.39,.91,.97,1.71,1.73,2.4,.76,.69,1.7,1.28,2.82,1.75,1.11,.48,2.4,.89,3.88,1.23,1.01,.26,1.93,.52,2.75,.78,.82,.26,1.55,.55,2.19,.87,.64,.32,1.17,.68,1.6,1.08,.43,.4,.76,.87,.98,1.39,.22,.52,.33,1.11,.33,1.78,0,1.01-.3,1.91-.91,2.69-.61,.78-1.44,1.39-2.51,1.82-1.07,.43-2.25,.65-3.55,.65-1.79,0-3.4-.39-4.83-1.17-1.43-.78-2.82-2.14-4.18-4.07l-2.34,2.6c.87,1.27,1.86,2.34,2.99,3.21,1.13,.87,2.37,1.52,3.73,1.95,1.36,.43,2.8,.65,4.33,.65,2.14,0,4.01-.38,5.61-1.13,1.6-.75,2.85-1.8,3.75-3.14,.89-1.34,1.34-2.91,1.34-4.7,0-1.15-.22-2.18-.67-3.08-.45-.89-1.1-1.68-1.95-2.36Z"/></g></g><path id="Logomark" class="cls-2" d="M131.4,127.35l.52,3.5-.13,.02c-1.19,.18-2.47,.26-3.9,.26-4.6,0-6.93-.89-9.18-1.76-2.04-.78-3.97-1.52-7.92-1.52s-5.87,.74-7.92,1.52c-2.26,.87-4.58,1.76-9.19,1.76s-6.93-.89-9.18-1.76c-2.04-.78-3.97-1.52-7.92-1.52s-5.87,.74-7.91,1.52c-2.25,.87-4.58,1.76-9.19,1.76s-6.93-.89-9.18-1.76c-2.04-.78-3.97-1.52-7.91-1.52s-5.87,.74-7.91,1.52c-2.25,.87-4.58,1.76-9.19,1.76-2.42,0-4.43-.25-6.34-.78l-.13-.04,.95-3.41,.13,.03c1.59,.44,3.3,.65,5.39,.65,3.95,0,5.87-.74,7.91-1.52,2.25-.86,4.58-1.76,9.19-1.76s6.93,.89,9.18,1.76c2.04,.78,3.97,1.52,7.91,1.52s5.87-.74,7.91-1.52c2.25-.86,4.58-1.76,9.18-1.76s6.93,.89,9.18,1.76c2.04,.78,3.97,1.52,7.92,1.52s5.87-.74,7.92-1.52c2.26-.87,4.58-1.76,9.19-1.76s6.93,.89,9.19,1.76c2.04,.78,3.97,1.52,7.92,1.52,1.25,0,2.36-.07,3.38-.22l.13-.02Zm-11.43,8.15c-2.25-.86-4.58-1.76-9.18-1.76s-6.93,.89-9.19,1.76c-2.04,.78-3.97,1.52-7.92,1.52s-5.88-.74-7.92-1.52c-2.25-.86-4.58-1.76-9.18-1.76s-6.93,.89-9.18,1.76c-2.04,.78-3.97,1.52-7.92,1.52s-5.87-.74-7.91-1.52c-2.25-.86-4.58-1.76-9.18-1.76s-6.93,.89-9.2,1.76c-1.09,.42-2.13,.82-3.44,1.1l-.13,.03,.74,3.46,.13-.03c1.59-.34,2.81-.81,3.98-1.26,2.04-.78,3.97-1.52,7.92-1.52s5.88,.74,7.91,1.52c2.25,.86,4.58,1.76,9.18,1.76s6.93-.89,9.18-1.76c2.04-.78,3.97-1.52,7.91-1.52s5.88,.74,7.92,1.52c2.25,.86,4.58,1.76,9.18,1.76s6.93-.89,9.19-1.76c2.04-.78,3.97-1.52,7.92-1.52s5.88,.74,7.92,1.52c.78,.3,1.58,.61,2.51,.88l.13,.04,1.01-3.39-.13-.04c-.8-.24-1.51-.51-2.26-.79Zm-18.37,9.43c-2.04,.78-3.97,1.52-7.92,1.52s-5.87-.74-7.92-1.52c-2.25-.86-4.58-1.76-9.18-1.76s-6.93,.89-9.19,1.76c-2.04,.78-3.97,1.52-7.91,1.52s-5.86-.74-7.92-1.52c-2.25-.86-4.58-1.76-9.18-1.76-.53,0-1.07,.01-1.6,.04h-.13s.18,3.54,.18,3.54h.13c.46-.03,.93-.04,1.42-.04,3.94,0,5.86,.74,7.91,1.52,2.25,.86,4.57,1.76,9.18,1.76s6.93-.89,9.2-1.76c2.04-.78,3.96-1.52,7.9-1.52s5.87,.74,7.92,1.52c2.25,.86,4.58,1.76,9.18,1.76s6.93-.89,9.19-1.76c2.04-.78,3.97-1.52,7.92-1.52h.13v-3.54h-.13c-4.6,0-6.93,.89-9.19,1.76Zm38.84-29.69l-.13,.02c-1.84,.34-3.19,.86-4.5,1.36-2.04,.78-3.97,1.52-7.92,1.52s-5.87-.74-7.92-1.52c-2.25-.86-4.58-1.76-9.19-1.76s-6.93,.89-9.19,1.76c-2.04,.78-3.97,1.52-7.92,1.52s-5.87-.74-7.92-1.52c-1.94-.74-3.94-1.43-7.02-1.66v-43.76c0-.52,.22-1.02,.6-1.38,.38-.35,.87-.53,1.39-.49,.45,.03,.91,.08,1.37,.13-.05,.79-.07,.94-.08,1.04,0,.07-.01,.11-.02,.31-.03,.68,.27,1.31,.89,1.82,.7,.58,1.6,.85,1.69,.87l.79,.22,.26-3.75c.55,.1,1.1,.22,1.64,.34,.59,.13,1,.68,.96,1.28-.23,3.57-.36,5.67-.39,6.26-.04,.69,.26,1.3,.89,1.82,.7,.59,1.6,.85,1.69,.87l.8,.22,.58-9.16c.48,.17,.98,.35,1.47,.54,.51,.2,.83,.69,.79,1.22-.02,.32-.51,7.95-.58,9.17-.03,.69,.26,1.3,.89,1.82,.7,.58,1.6,.85,1.69,.87l.8,.22,.73-11.33c.54,.29,1.07,.59,1.59,.9,.38,.23,.6,.66,.57,1.11-.24,3.67-.65,9.99-.7,11.01-.03,.69,.26,1.3,.89,1.82,.7,.59,1.6,.85,1.7,.87l.79,.22,.79-12.21c.55,.45,1.08,.91,1.59,1.38,.26,.24,.4,.59,.37,.96-.44,6.7-.69,10.66-.73,11.44-.03,.69,.26,1.3,.89,1.82,.7,.58,1.6,.85,1.69,.87l.8,.22,.73-11.16c.61,.8,1.18,1.64,1.72,2.49,.13,.21,.2,.47,.18,.72l-.02,.33c-.13,2-.52,8.1-.58,9.19-.03,.69,.26,1.3,.89,1.82,.7,.59,1.6,.85,1.7,.87l.8,.22,.4-6.32c1.01,2.66,1.82,5.58,2.41,8.7,.14,.76,.47,1.35,.97,1.77,1,.83,2.31,.62,2.32,.62l.64-.11-.08-.64c-2.03-15.24-9.5-26.51-21.61-32.59-7.61-3.82-15.06-4.66-19.02-4.8,.75-.62,1.87-1.49,3.34-2.46,.47,.65,.55,.78,.6,.85,.04,.06,.06,.1,.18,.26,.41,.55,1.04,.83,1.85,.83,.92,0,1.77-.37,1.86-.41l.75-.34-2.19-3.05c.5-.28,.99-.54,1.48-.79,.54-.27,1.21-.11,1.56,.37,2.07,2.84,3.35,4.59,3.7,5.07,.41,.55,1.04,.83,1.85,.83,.91,0,1.77-.37,1.86-.41l.76-.34-5.41-7.41c.49-.18,.98-.36,1.48-.52,.52-.17,1.07,0,1.39,.43,1.1,1.51,4.75,6.53,5.42,7.42,.41,.55,1.04,.83,1.85,.83,.92,0,1.77-.37,1.86-.41l.76-.34-6.68-9.18c.6-.12,1.21-.23,1.8-.32,.44-.07,.88,.12,1.15,.49,3.86,5.31,6.04,8.31,6.5,8.92,.41,.55,1.04,.83,1.85,.83,.92,0,1.77-.37,1.86-.41l.75-.34-7.19-9.9c.7,0,1.41,.01,2.1,.05,.36,.02,.69,.2,.9,.5,1,1.38,6.02,8.3,6.74,9.27,.41,.55,1.04,.83,1.85,.83,.92,0,1.77-.37,1.86-.41l.75-.34-6.57-9.05c.97,.23,1.95,.5,2.91,.82,.24,.08,.45,.23,.6,.44,1.15,1.58,4.94,6.79,5.62,7.7,.41,.55,1.04,.83,1.85,.83,.91,0,1.77-.37,1.86-.41l.76-.34-3.73-5.12c2.48,1.4,4.97,3.13,7.42,5.15,.6,.49,1.23,.74,1.88,.74,1.25,0,2.09-.9,2.18-1.01l.42-.49-.48-.44c-11.3-10.43-24.25-14.33-37.45-11.26-8,1.86-14.15,5.79-17.23,8.1,.16-1.13,.39-2.32,.67-3.53,.78,.15,.93,.19,1.02,.21,.07,.02,.11,.03,.31,.06,.68,.12,1.32-.1,1.92-.66,.64-.6,1.01-1.42,1.08-1.57l.32-.76-3.69-.72c.17-.53,.35-1.06,.54-1.58,.2-.56,.8-.9,1.39-.8,3.43,.65,5.56,1.05,6.17,1.16,.68,.12,1.33-.1,1.92-.66,.66-.62,1.04-1.48,1.08-1.57l.32-.76-9.02-1.7c.22-.45,.47-.92,.72-1.39,.26-.48,.78-.73,1.31-.64,1.84,.35,7.95,1.51,9.03,1.7,.68,.13,1.32-.1,1.92-.66,.65-.61,1.01-1.42,1.08-1.57l.32-.76-11.15-2.12c.36-.5,.72-.99,1.09-1.47,.28-.35,.72-.51,1.18-.43,.98,.19,9.62,1.84,10.84,2.06,.68,.12,1.33-.1,1.92-.66,.64-.6,1.01-1.41,1.08-1.57l.32-.76-12.02-2.29c.51-.49,1.04-.96,1.57-1.4,.27-.23,.64-.32,1-.25l.17,.03c2.74,.52,10,1.92,11.08,2.11,.68,.12,1.33-.1,1.92-.66,.67-.63,1.04-1.48,1.08-1.57l.32-.76-10.98-2.1c.87-.5,1.77-.97,2.68-1.39,.23-.1,.49-.14,.74-.09,5.4,1.03,8.64,1.64,9.37,1.77,.68,.12,1.32-.1,1.92-.66,.64-.6,1.01-1.41,1.08-1.57l.32-.76-6.22-1.18c2.76-.67,5.77-1.12,8.93-1.32,.77-.05,1.4-.3,1.88-.75,.92-.87,.9-2.17,.9-2.23l-.03-.65h-.65c-15.38,.14-27.49,6.16-35.01,17.43-3.72,5.56-5.58,11.25-6.51,15.21-.92-3.97-2.79-9.65-6.51-15.21-7.52-11.27-19.63-17.29-35.01-17.42h-.65s-.03,.63-.03,.63c0,.01-.06,1.34,.9,2.24,.47,.44,1.1,.7,1.87,.75,3.17,.21,6.17,.65,8.93,1.32l-6.22,1.18,.32,.76c.04,.1,.41,.95,1.07,1.57,.6,.56,1.24,.78,1.92,.66,.75-.13,4.07-.76,9.37-1.77,.25-.05,.51-.02,.74,.09,.91,.42,1.81,.89,2.68,1.39l-10.98,2.1,.32,.76c.04,.1,.41,.94,1.08,1.57,.59,.56,1.24,.78,1.92,.66,1.08-.19,8.35-1.58,11.08-2.11l.17-.03c.36-.07,.72,.02,1,.25,.53,.44,1.05,.91,1.57,1.4l-12.02,2.29,.32,.76c.04,.09,.41,.94,1.07,1.57,.59,.55,1.25,.78,1.92,.66,.75-.13,4.5-.84,10.84-2.06,.45-.09,.9,.08,1.18,.43,.37,.47,.74,.97,1.09,1.47l-11.15,2.12,.32,.76c.07,.16,.42,.96,1.08,1.57,.59,.56,1.24,.78,1.92,.66,1.02-.18,6.65-1.25,9.03-1.7,.52-.1,1.04,.15,1.3,.64,.25,.46,.49,.93,.72,1.39l-9.02,1.7,.32,.76c.04,.1,.41,.95,1.08,1.58,.59,.56,1.24,.78,1.92,.66,.6-.11,2.79-.52,6.17-1.16,.59-.11,1.18,.23,1.39,.8,.19,.51,.37,1.04,.54,1.58l-3.68,.72,.32,.76c.04,.1,.41,.95,1.08,1.58,.59,.56,1.24,.78,1.92,.66,.2-.03,.24-.04,.31-.06,.09-.02,.24-.06,1.02-.21,.28,1.21,.51,2.39,.67,3.53-3.09-2.31-9.23-6.25-17.23-8.1-13.2-3.06-26.15,.83-37.45,11.26l-.48,.44,.43,.49s.89,1.01,2.18,1.01c.65,0,1.28-.25,1.88-.74,2.45-2.02,4.94-3.75,7.42-5.15l-3.73,5.12,.76,.34c.09,.04,.94,.41,1.86,.41,.81,0,1.44-.28,1.85-.83,.31-.42,1.54-2.1,5.62-7.7,.15-.21,.36-.36,.6-.44,.96-.31,1.93-.59,2.91-.82l-6.57,9.05,.75,.34c.09,.04,.95,.41,1.86,.41,.81,0,1.44-.28,1.85-.83,.72-.97,5.74-7.89,6.74-9.27,.21-.3,.54-.48,.9-.5,.69-.04,1.39-.05,2.1-.05l-7.19,9.9,.76,.34c.09,.04,.95,.41,1.86,.41,.81,0,1.43-.28,1.85-.83,.72-.96,5.57-7.64,6.5-8.92,.27-.37,.71-.56,1.15-.49,.59,.09,1.2,.2,1.8,.32l-6.68,9.18,.76,.34c.09,.04,.95,.41,1.86,.41,.81,0,1.43-.28,1.85-.83,.6-.8,3.65-5,5.42-7.42,.31-.43,.87-.6,1.39-.43,.49,.16,.99,.34,1.48,.52l-5.41,7.41,.76,.34c.09,.04,.95,.41,1.86,.41,.81,0,1.43-.28,1.85-.83,.36-.48,1.64-2.23,3.7-5.07,.35-.48,1.02-.64,1.56-.37,.49,.25,.98,.51,1.48,.78l-2.19,3.05,.75,.34c.09,.04,.95,.41,1.86,.41,.81,0,1.43-.28,1.85-.83,.11-.15,.14-.19,.18-.26,.05-.08,.13-.2,.6-.85,1.46,.97,2.59,1.84,3.34,2.46-3.97,.15-11.41,.98-19.02,4.8-12.11,6.07-19.58,17.34-21.61,32.59l-.08,.64,.65,.11c.14,.02,1.37,.17,2.31-.62,.5-.42,.83-1.01,.97-1.77,.59-3.11,1.4-6.03,2.41-8.7l.4,6.32,.8-.22c.1-.03,1-.3,1.69-.87,.63-.52,.92-1.13,.89-1.82-.04-.74-.23-3.85-.6-9.51-.02-.25,.05-.51,.18-.72,.53-.85,1.11-1.69,1.72-2.49l.73,11.15,.8-.22c.1-.03,.99-.29,1.69-.87,.62-.52,.92-1.13,.89-1.82-.03-.53-.17-2.93-.73-11.33v-.1c-.03-.36,.11-.71,.37-.96,.5-.47,1.03-.93,1.59-1.38l.79,12.21,.8-.22c.1-.03,1-.3,1.69-.87,.62-.52,.92-1.13,.89-1.82-.05-.95-.4-6.39-.7-11.01-.03-.46,.19-.88,.57-1.11,.52-.31,1.06-.62,1.59-.9l.73,11.33,.8-.22c.1-.03,.99-.29,1.69-.87,.63-.52,.92-1.13,.89-1.82-.04-.73-.24-3.9-.57-9.17-.03-.53,.28-1.02,.79-1.22,.48-.19,.98-.37,1.47-.54l.58,9.16,.8-.22c.1-.03,1-.29,1.69-.87,.63-.52,.92-1.13,.89-1.82-.03-.61-.17-2.77-.39-6.26-.04-.6,.38-1.14,.96-1.28,.53-.12,1.08-.23,1.64-.34l.26,3.75,.79-.22c.1-.03,.99-.29,1.69-.87,.62-.51,.92-1.14,.89-1.82-.01-.19-.02-.24-.03-.32-.01-.1-.03-.27-.08-1.03,.44-.05,.86-.09,1.26-.12,.52-.04,1.01,.13,1.4,.49,.38,.35,.6,.86,.6,1.38v43.95c-2.05,.32-3.54,.86-5.14,1.47-2.04,.78-3.97,1.52-7.91,1.52s-5.87-.74-7.91-1.52c-2.25-.86-4.58-1.76-9.18-1.76s-6.93,.89-9.19,1.76c-2.04,.78-3.97,1.52-7.91,1.52s-5.87-.74-7.91-1.52c-1.8-.69-3.66-1.4-6.72-1.66h-.13s-.3,3.52-.3,3.52h.13c2.57,.23,4.11,.82,5.75,1.45,2.25,.86,4.58,1.76,9.18,1.76s6.93-.89,9.19-1.76c2.04-.78,3.97-1.52,7.91-1.52s5.87,.74,7.91,1.52c2.25,.86,4.58,1.76,9.18,1.76s6.93-.89,9.19-1.76c2.04-.78,3.97-1.52,7.91-1.52s5.87,.74,7.92,1.52c2.25,.86,4.58,1.76,9.18,1.76s6.93-.89,9.19-1.76c2.04-.78,3.97-1.52,7.92-1.52s5.87,.74,7.92,1.52c2.25,.86,4.58,1.76,9.18,1.76s6.94-.89,9.19-1.76c1.21-.46,2.35-.9,3.88-1.19l.13-.02-.65-3.48ZM75.69,0C33.96,0,0,33.96,0,75.69c0,12.06,2.91,24.06,8.41,34.71l4.19-2.16c-5.23-10.12-7.88-21.07-7.88-32.54C4.71,36.56,36.56,4.71,75.69,4.71s70.98,31.84,70.98,70.98c0,11.47-2.65,22.42-7.88,32.54l4.19,2.16c5.5-10.65,8.41-22.65,8.41-34.71C151.39,33.96,117.43,0,75.69,0Z"/></g></g></svg>