<?xml version="1.0" encoding="UTF-8"?><svg id="Layer_2" xmlns="http://www.w3.org/2000/svg" viewBox="0 0 400 400"><defs><style>.cls-1{fill:#5b8497;}</style></defs><g id="Logos"><path id="primaryLogomark-stoneBlue" class="cls-1" d="M200,400C89.72,400,0,310.28,0,200S89.72,0,200,0s200,89.72,200,200-89.72,200-200,200Zm0-389.47C95.53,10.53,10.53,95.53,10.53,200s84.99,189.47,189.47,189.47,189.47-84.99,189.47-189.47S304.47,10.53,200,10.53ZM86.86,94.01c.32-1.69,.21-3.34-.33-4.97-.54-1.62-1.47-3-2.79-4.13-1.39-1.19-2.93-1.92-4.61-2.2-1.69-.28-3.34-.12-4.97,.47-1.63,.59-3.04,1.58-4.22,2.97l-8.58,10.04,23.13,19.76,3.58-4.2-8.49-7.25,3.79-4.43,12.58,2.47,4.38-5.06-13.71-2.53c.09-.31,.19-.62,.25-.95Zm-11.01,7.31l-7.04-6.01,4.37-5.12c.66-.77,1.4-1.32,2.21-1.65,.82-.33,1.63-.44,2.44-.32,.81,.12,1.58,.49,2.31,1.11,.64,.55,1.11,1.18,1.41,1.89,.3,.72,.4,1.44,.29,2.16-.11,.73-.43,1.41-.98,2.05l-5.02,5.88Zm44.63-38.33c-1.32-1.84-2.84-3.3-4.55-4.41-1.72-1.1-3.55-1.83-5.48-2.19-1.93-.36-3.88-.32-5.84,.13-1.96,.45-3.84,1.31-5.63,2.59-1.77,1.27-3.17,2.76-4.22,4.47-1.05,1.72-1.72,3.55-2.02,5.49-.3,1.94-.2,3.91,.31,5.9,.5,1.99,1.41,3.91,2.73,5.74,1.32,1.84,2.84,3.31,4.57,4.42,1.73,1.11,3.56,1.84,5.5,2.18,1.94,.34,3.89,.28,5.85-.16,1.96-.45,3.83-1.3,5.59-2.57,1.79-1.28,3.21-2.78,4.26-4.5,1.05-1.72,1.71-3.55,1.99-5.5,.28-1.95,.17-3.92-.34-5.91-.5-1.99-1.4-3.89-2.71-5.71Zm-2.55,10.9c-.13,1.26-.52,2.42-1.15,3.5-.63,1.08-1.52,2.03-2.65,2.84-1.11,.79-2.28,1.32-3.51,1.59s-2.47,.26-3.69,0c-1.22-.26-2.39-.77-3.5-1.52-1.11-.75-2.1-1.73-2.96-2.93-.88-1.22-1.49-2.48-1.84-3.76-.35-1.28-.45-2.54-.31-3.79,.14-1.24,.54-2.41,1.18-3.5,.64-1.09,1.52-2.03,2.63-2.82,1.13-.81,2.31-1.34,3.53-1.6,1.22-.26,2.45-.25,3.68,.03,1.23,.28,2.4,.78,3.52,1.51,1.12,.73,2.1,1.7,2.97,2.9,.86,1.2,1.46,2.45,1.8,3.74,.34,1.29,.44,2.56,.31,3.82Zm33.69-21.3c-.79-.7-1.73-1.22-2.84-1.56-1.11-.34-2.36-.53-3.74-.54-1.38-.01-2.87,.13-4.47,.44-.96,.17-1.84,.28-2.64,.32-.8,.04-1.48,0-2.06-.15-.57-.14-1.07-.37-1.48-.69s-.73-.74-.94-1.28c-.28-.7-.33-1.38-.13-2.04,.2-.66,.6-1.27,1.2-1.83,.6-.56,1.39-1.03,2.35-1.43,.86-.35,1.73-.54,2.63-.58,.89-.04,1.79,.09,2.68,.36,.9,.28,1.78,.72,2.66,1.33l2.07-4.83c-1.04-.79-2.19-1.37-3.44-1.72-1.25-.35-2.58-.46-3.98-.32-1.4,.13-2.89,.52-4.47,1.17-1.4,.57-2.61,1.3-3.66,2.2-1.04,.89-1.87,1.89-2.49,2.99-.62,1.1-.98,2.25-1.1,3.45s.06,2.4,.54,3.58c.48,1.18,1.08,2.16,1.81,2.95,.73,.78,1.61,1.39,2.67,1.82,1.05,.43,2.23,.67,3.53,.72,1.3,.05,2.75-.08,4.35-.39,.84-.16,1.62-.27,2.35-.35,.72-.07,1.39-.08,2.01-.02,.62,.06,1.17,.17,1.64,.34,.47,.17,.88,.41,1.21,.73,.33,.32,.59,.7,.78,1.16,.26,.65,.28,1.3,.05,1.97-.23,.67-.66,1.3-1.3,1.89-.64,.59-1.41,1.07-2.32,1.44-1.58,.64-3.15,.88-4.69,.69-1.55-.18-3.35-.92-5.41-2.21l-1.85,5.26c1.34,.83,2.73,1.44,4.17,1.82,1.44,.38,2.93,.5,4.47,.36,1.54-.14,3.12-.55,4.76-1.21,2.12-.86,3.83-1.97,5.12-3.33,1.29-1.36,2.1-2.88,2.44-4.56,.33-1.68,.12-3.45-.64-5.3-.44-1.07-1.05-1.96-1.83-2.65Zm31.94-6.83c-.62-.85-1.44-1.56-2.45-2.13-1.01-.57-2.19-1.01-3.54-1.32-1.35-.31-2.83-.48-4.46-.51-.98-.03-1.86-.11-2.65-.24-.79-.13-1.45-.32-1.98-.58-.53-.26-.96-.59-1.3-.98-.33-.4-.55-.88-.65-1.45-.13-.74-.03-1.41,.31-2.02,.33-.6,.85-1.11,1.56-1.53s1.57-.72,2.6-.9c.91-.16,1.81-.16,2.69-.01,.88,.15,1.73,.46,2.54,.92,.82,.46,1.59,1.08,2.31,1.86l3.04-4.29c-.85-1-1.85-1.8-3.01-2.4-1.15-.61-2.43-.99-3.82-1.16-1.4-.16-2.94-.1-4.62,.2-1.48,.26-2.83,.72-4.04,1.38-1.21,.65-2.23,1.45-3.06,2.39-.83,.94-1.44,1.99-1.81,3.14-.37,1.15-.44,2.36-.22,3.61,.22,1.26,.6,2.34,1.15,3.26s1.29,1.7,2.22,2.34c.94,.64,2.04,1.13,3.3,1.45,1.26,.32,2.71,.5,4.33,.54,.86,.02,1.65,.08,2.37,.15,.72,.08,1.38,.21,1.97,.4,.59,.19,1.1,.42,1.53,.68,.43,.26,.77,.58,1.03,.97,.26,.38,.43,.81,.52,1.3,.12,.68,0,1.33-.36,1.94-.36,.61-.92,1.13-1.66,1.57-.75,.44-1.61,.75-2.57,.92-1.68,.3-3.26,.19-4.73-.31-1.47-.51-3.08-1.6-4.82-3.3l-2.91,4.75c1.13,1.09,2.36,1.98,3.69,2.66,1.32,.68,2.76,1.11,4.29,1.29,1.53,.19,3.17,.12,4.91-.18,2.25-.4,4.16-1.12,5.71-2.18,1.55-1.05,2.66-2.37,3.34-3.94,.68-1.58,.84-3.35,.49-5.32-.2-1.14-.61-2.14-1.23-2.98Zm50.59-14.47c-1.27-.79-2.89-1.34-4.86-1.65l-12.79-2.03-4.76,30.04,13.22,2.1c1.57,.25,3.02,.28,4.34,.09,1.32-.19,2.5-.58,3.53-1.18,1.03-.6,1.88-1.42,2.52-2.46,.65-1.04,1.09-2.29,1.32-3.75,.22-1.37,.13-2.64-.25-3.8-.39-1.16-1.03-2.19-1.91-3.08-.58-.58-1.29-1.05-2.05-1.47,1.08-.29,2.02-.79,2.79-1.52,1.07-1,1.73-2.34,2-4,.25-1.6,.12-3.02-.4-4.27-.52-1.24-1.42-2.26-2.69-3.04Zm-13,2.21l6.39,1.01c1.49,.24,2.57,.74,3.24,1.5,.67,.77,.92,1.72,.73,2.87-.11,.72-.38,1.32-.81,1.81-.43,.49-.98,.84-1.64,1.06-.67,.22-1.41,.26-2.24,.13l-6.82-1.08,1.16-7.3Zm9.92,17.89c-.14,.86-.45,1.56-.93,2.12-.48,.55-1.11,.93-1.89,1.13-.78,.2-1.7,.22-2.76,.05l-7.51-1.19,1.25-7.9,7.3,1.16c1.06,.17,1.95,.46,2.68,.89,.72,.42,1.25,.95,1.57,1.59,.33,.64,.42,1.36,.3,2.16Zm42.13-8.19l-7.1,16.96c-.53,1.26-1.28,2.25-2.26,2.99-.98,.73-2.09,1.19-3.33,1.36-1.24,.17-2.47,0-3.7-.51-1.12-.47-2.04-1.2-2.76-2.19-.72-.99-1.16-2.09-1.33-3.31-.17-1.22,.01-2.45,.54-3.71l7.1-16.96-5.25-2.2-7.25,17.32c-.88,2.11-1.17,4.21-.87,6.3,.3,2.09,1.12,3.97,2.46,5.65,1.34,1.68,3.12,2.98,5.34,3.91,2.25,.94,4.43,1.3,6.57,1.08,2.13-.22,4.05-.96,5.75-2.21,1.7-1.25,2.99-2.93,3.88-5.04l7.25-17.32-5.05-2.11Zm24.86,20.56l4.1,2.85,2.85-4.1-12.84-8.93-2.85,4.1,4.1,2.85-11.66,16.77-4.1-2.85-2.85,4.1,12.84,8.93,2.85-4.1-4.1-2.85,11.66-16.77Zm23.17,13.02l-3.95-4.04-21.75,21.27,13.76,14.07,3.73-3.65-9.81-10.03,18.02-17.62Zm15.42,16.77l-4.32,2.92,4.87,7.2-20.87,14.13,3.17,4.68,20.87-14.13,5.02,7.41,4.32-2.92-13.06-19.29ZM101.02,312.94c-.2-.9-.53-1.77-.99-2.61-.46-.84-1.05-1.6-1.75-2.28-1.03-.99-2.17-1.73-3.41-2.21-1.24-.48-2.52-.7-3.83-.66-1.31,.04-2.58,.33-3.82,.86-1.23,.54-2.35,1.33-3.36,2.38-1.05,1.09-1.84,2.26-2.37,3.52-.53,1.25-.8,2.52-.81,3.8-.01,1.28,.25,2.52,.77,3.71,.52,1.2,1.31,2.3,2.36,3.3,.67,.65,1.44,1.22,2.28,1.7,.85,.48,1.69,.84,2.54,1.07,.84,.23,1.61,.32,2.3,.26l.73-3.4c-.6,.01-1.18-.04-1.77-.17-.58-.12-1.15-.33-1.7-.62-.55-.29-1.05-.65-1.5-1.09-.7-.68-1.24-1.41-1.6-2.2-.37-.79-.55-1.6-.56-2.44,0-.83,.16-1.65,.5-2.46,.34-.81,.87-1.58,1.57-2.31,.69-.72,1.43-1.25,2.23-1.61,.8-.36,1.6-.56,2.42-.59,.82-.04,1.62,.1,2.4,.4,.78,.3,1.49,.76,2.13,1.37,.43,.41,.78,.88,1.06,1.4,.28,.52,.49,1.09,.62,1.71,.13,.62,.2,1.29,.2,2l3.53-.23c.09-.84,.04-1.71-.16-2.6Zm16.83,11.02l-7.03,9.9c-.52,.73-1.15,1.26-1.89,1.6-.74,.33-1.52,.46-2.34,.4-.82-.07-1.59-.36-2.31-.86-.66-.47-1.14-1.07-1.46-1.81-.32-.74-.44-1.52-.37-2.32,.07-.81,.36-1.58,.88-2.31l7.03-9.9-3.07-2.18-7.18,10.11c-.87,1.23-1.37,2.54-1.47,3.93-.11,1.39,.15,2.72,.77,4,.62,1.27,1.58,2.37,2.87,3.29,1.31,.93,2.67,1.48,4.08,1.65,1.41,.17,2.75-.03,4.03-.59,1.28-.56,2.35-1.46,3.23-2.69l7.18-10.11-2.95-2.09Zm17.2,9.9c-.67-.64-1.5-1.23-2.51-1.74-.88-.45-1.78-.75-2.67-.89-.9-.14-1.75-.13-2.57,.03-.81,.16-1.55,.47-2.21,.93-.66,.46-1.17,1.06-1.56,1.81-.39,.75-.62,1.47-.7,2.17-.08,.7,0,1.41,.23,2.12,.24,.71,.62,1.41,1.16,2.08,.54,.67,1.22,1.35,2.06,2.01,.44,.36,.83,.7,1.18,1.03,.35,.33,.64,.66,.87,1,.23,.34,.41,.66,.53,.97,.12,.31,.17,.62,.16,.92-.02,.3-.1,.6-.25,.89-.21,.41-.53,.7-.97,.88-.43,.17-.94,.23-1.5,.16-.57-.07-1.14-.25-1.72-.55-1-.52-1.79-1.2-2.36-2.05-.57-.85-.98-2.07-1.22-3.66l-3.43,1.33c.16,1.03,.45,1.99,.88,2.87,.43,.89,1.01,1.68,1.74,2.39,.73,.71,1.62,1.33,2.66,1.87,1.34,.69,2.63,1.07,3.87,1.14,1.24,.06,2.35-.18,3.33-.74,.98-.56,1.78-1.42,2.38-2.6,.35-.68,.53-1.37,.54-2.06,.01-.69-.13-1.39-.44-2.1-.3-.71-.75-1.41-1.34-2.11-.59-.7-1.3-1.38-2.14-2.05-.5-.41-.93-.8-1.3-1.18-.36-.38-.63-.75-.81-1.09-.17-.35-.27-.69-.29-1.04-.02-.34,.06-.68,.24-1.03,.23-.44,.55-.75,.97-.94,.42-.18,.89-.24,1.43-.18,.54,.06,1.11,.25,1.73,.57,.54,.28,1.02,.64,1.42,1.07,.4,.43,.72,.93,.97,1.5,.24,.57,.4,1.2,.47,1.91l3.31-1.04c-.05-.86-.26-1.69-.62-2.46-.36-.78-.88-1.49-1.55-2.14Zm6.51,6.82l5.4,1.93-5.6,15.67,3.51,1.26,5.6-15.67,5.57,1.99,1.16-3.24-14.48-5.18-1.16,3.24Zm35.04,8.96c-.69-1.1-1.59-2.02-2.68-2.77-1.1-.75-2.36-1.27-3.78-1.56-1.41-.29-2.76-.3-4.06-.04-1.3,.26-2.49,.75-3.57,1.48-1.08,.73-1.98,1.66-2.72,2.8-.74,1.14-1.26,2.44-1.56,3.9-.3,1.46-.33,2.86-.1,4.2,.23,1.34,.7,2.55,1.41,3.64,.71,1.09,1.6,2.01,2.7,2.76,1.1,.75,2.35,1.27,3.75,1.56,1.42,.29,2.79,.31,4.09,.04,1.3-.26,2.49-.76,3.56-1.5,1.07-.74,1.97-1.68,2.71-2.81,.74-1.14,1.26-2.43,1.55-3.87,.3-1.46,.33-2.86,.09-4.18-.24-1.33-.7-2.54-1.39-3.64Zm-2.41,7.06c-.2,.96-.53,1.8-1,2.55-.48,.74-1.05,1.36-1.71,1.86-.67,.5-1.41,.84-2.21,1.01-.81,.18-1.66,.17-2.56-.01-.88-.18-1.66-.51-2.35-.99-.68-.48-1.24-1.08-1.66-1.79-.42-.71-.7-1.5-.83-2.38-.13-.88-.1-1.79,.09-2.75,.2-.97,.53-1.83,1-2.58,.46-.74,1.03-1.36,1.69-1.85,.67-.49,1.41-.82,2.23-1,.82-.17,1.67-.17,2.55,0,.9,.18,1.69,.51,2.36,.99,.67,.48,1.22,1.08,1.64,1.8,.42,.72,.7,1.52,.85,2.38,.14,.87,.12,1.78-.08,2.74Zm20.76,2.09l-5.96-10.42-3.53-.11-.63,20.08,3.7,.12,.24-7.54c.06-1.86,.06-3.46,.02-4.81-.02-.54-.09-1.04-.13-1.57l5.09,8.63,1.89,.06,5.78-8.33c-.08,.59-.19,1.17-.25,1.76-.13,1.37-.22,2.92-.27,4.64l-.24,7.54,3.7,.12,.63-20.08-3.36-.1-6.69,10.02Zm40.12-14.23l1.7,8.15-8.96,1.87-1.7-8.14-3.65,.76,4.11,19.66,3.65-.76-1.69-8.09,8.96-1.87,1.69,8.09,3.65-.76-4.11-19.66-3.65,.76Zm29.27-3.69c-.92-.99-1.96-1.76-3.14-2.31-1.18-.55-2.43-.85-3.76-.89-1.33-.04-2.67,.2-4.03,.73-1.34,.52-2.48,1.24-3.44,2.16-.96,.92-1.69,1.98-2.2,3.17-.51,1.19-.77,2.47-.78,3.83,0,1.36,.26,2.73,.79,4.12,.54,1.39,1.26,2.59,2.18,3.59,.92,1,1.97,1.77,3.15,2.31s2.44,.83,3.77,.87c1.33,.04,2.66-.2,4-.71,1.36-.52,2.51-1.25,3.47-2.17,.96-.92,1.68-1.98,2.19-3.18,.5-1.2,.76-2.48,.77-3.83,0-1.36-.25-2.72-.78-4.1-.54-1.39-1.26-2.58-2.18-3.57Zm-1.26,10.11c-.29,.78-.73,1.46-1.32,2.05s-1.3,1.04-2.16,1.37c-.84,.32-1.68,.47-2.51,.43-.83-.04-1.62-.24-2.36-.61-.74-.37-1.4-.89-1.99-1.56-.59-.67-1.05-1.45-1.41-2.36-.36-.93-.54-1.83-.55-2.71-.01-.88,.13-1.7,.43-2.47,.3-.77,.74-1.45,1.33-2.04,.59-.59,1.31-1.04,2.15-1.37,.86-.33,1.7-.48,2.52-.44,.83,.04,1.61,.25,2.35,.63,.74,.38,1.41,.9,2,1.55,.59,.65,1.06,1.44,1.41,2.35,.35,.91,.53,1.81,.53,2.69,0,.88-.14,1.71-.44,2.49Zm18.72-26.68l-.21,12.04-10.64-5.54-3.03,1.82,10.33,17.23,3.18-1.9-3.88-6.47c-.95-1.59-1.81-2.94-2.58-4.06-.3-.44-.64-.83-.96-1.25l8.95,4.51,1.62-.97,.35-10.14c.25,.54,.47,1.09,.75,1.62,.63,1.23,1.39,2.58,2.28,4.05l3.88,6.47,3.17-1.9-10.33-17.23-2.88,1.73Zm21.96,4.47l-3.34-4.01,6.15-5.12-2.13-2.56-6.15,5.12-3.05-3.66,7.28-6.06-2.17-2.6-10.1,8.41,12.85,15.43,10.19-8.48-2.17-2.6-7.36,6.13Zm22.97-21.23c-.28-1.1-.9-2.09-1.87-2.99-.56-.52-1.18-.87-1.84-1.07-.66-.2-1.38-.24-2.14-.14-.76,.11-1.56,.35-2.39,.73-.83,.38-1.68,.89-2.55,1.52-.53,.37-1.02,.69-1.48,.94-.46,.25-.89,.41-1.27,.49-.38,.08-.74,.08-1.08,0-.34-.07-.64-.24-.92-.5-.37-.34-.58-.73-.65-1.18-.07-.45,0-.93,.2-1.43,.2-.5,.54-1.01,1-1.51,.41-.45,.88-.81,1.41-1.08,.52-.27,1.09-.45,1.7-.54,.61-.09,1.27-.07,1.96,.05l-.12-3.47c-.85-.18-1.69-.2-2.54-.06s-1.67,.45-2.47,.92-1.58,1.12-2.35,1.95c-.67,.73-1.2,1.51-1.57,2.34-.37,.83-.59,1.66-.65,2.48-.06,.83,.04,1.62,.31,2.37,.27,.75,.71,1.42,1.33,1.99,.62,.57,1.26,.99,1.91,1.25,.65,.26,1.36,.38,2.11,.34s1.52-.23,2.31-.56c.79-.34,1.62-.82,2.49-1.45,.46-.33,.9-.62,1.31-.87,.41-.25,.81-.44,1.19-.58,.39-.14,.75-.22,1.08-.26,.33-.03,.64,0,.93,.09,.29,.1,.55,.26,.79,.47,.34,.31,.53,.7,.59,1.16s-.03,.96-.24,1.49c-.22,.53-.54,1.03-.98,1.51-.76,.83-1.63,1.41-2.61,1.73-.98,.32-2.26,.39-3.85,.2l.37,3.66c1.03,.12,2.03,.09,3-.09,.97-.17,1.89-.52,2.77-1.04,.88-.52,1.71-1.2,2.5-2.06,1.02-1.11,1.73-2.25,2.12-3.43,.39-1.17,.45-2.31,.17-3.41Zm-33.5-20.8l.86,5.86-.22,.03c-2,.29-4.13,.44-6.52,.44-7.71,0-11.6-1.49-15.37-2.94-3.42-1.31-6.65-2.55-13.25-2.55s-9.83,1.24-13.25,2.54c-3.78,1.45-7.67,2.94-15.38,2.94s-11.6-1.49-15.37-2.94c-3.42-1.31-6.65-2.55-13.25-2.55s-9.82,1.24-13.24,2.54c-3.77,1.45-7.67,2.94-15.38,2.94s-11.6-1.49-15.36-2.94c-3.42-1.31-6.64-2.55-13.25-2.55s-9.83,1.24-13.25,2.54c-3.77,1.45-7.67,2.94-15.38,2.94-4.05,0-7.42-.41-10.61-1.3l-.21-.06,1.59-5.71,.21,.06c2.65,.74,5.52,1.08,9.02,1.08,6.6,0,9.83-1.24,13.24-2.55,3.77-1.45,7.67-2.94,15.38-2.94s11.6,1.49,15.37,2.94c3.42,1.31,6.64,2.55,13.24,2.55s9.83-1.24,13.24-2.55c3.77-1.45,7.67-2.94,15.37-2.94s11.6,1.49,15.37,2.94c3.42,1.31,6.65,2.55,13.25,2.55s9.83-1.24,13.25-2.54c3.78-1.45,7.67-2.94,15.38-2.94s11.6,1.49,15.37,2.94c3.42,1.31,6.65,2.55,13.25,2.55,2.1,0,3.95-.12,5.66-.37l.22-.03Zm-19.13,13.65c-3.77-1.45-7.66-2.94-15.37-2.94s-11.6,1.49-15.38,2.94c-3.41,1.31-6.64,2.55-13.25,2.55s-9.84-1.24-13.25-2.55c-3.77-1.45-7.67-2.94-15.37-2.94s-11.6,1.49-15.37,2.94c-3.41,1.31-6.64,2.55-13.25,2.55s-9.83-1.24-13.24-2.55c-3.77-1.45-7.66-2.94-15.37-2.94s-11.6,1.49-15.4,2.95c-1.83,.7-3.56,1.36-5.76,1.84l-.21,.05,1.25,5.79,.21-.05c2.67-.58,4.7-1.35,6.66-2.11,3.41-1.31,6.64-2.55,13.25-2.55s9.83,1.24,13.25,2.55c3.77,1.44,7.66,2.94,15.36,2.94s11.6-1.49,15.37-2.94c3.41-1.31,6.64-2.55,13.25-2.55s9.84,1.24,13.25,2.55c3.77,1.44,7.67,2.94,15.37,2.94s11.6-1.49,15.38-2.94c3.41-1.31,6.64-2.55,13.25-2.55s9.84,1.24,13.25,2.55c1.3,.5,2.65,1.02,4.21,1.48l.21,.06,1.69-5.68-.21-.06c-1.34-.4-2.52-.85-3.78-1.33Zm-30.75,15.79c-3.42,1.31-6.64,2.55-13.25,2.55s-9.82-1.23-13.25-2.55c-3.76-1.45-7.66-2.94-15.37-2.94s-11.6,1.5-15.38,2.95c-3.41,1.31-6.64,2.54-13.23,2.54s-9.81-1.23-13.25-2.55c-3.77-1.45-7.66-2.94-15.36-2.94-.89,0-1.79,.02-2.67,.07h-.22s.3,5.93,.3,5.93h.22c.76-.05,1.56-.07,2.38-.07,6.59,0,9.81,1.23,13.24,2.55,3.76,1.45,7.65,2.94,15.37,2.94s11.59-1.49,15.39-2.95c3.41-1.31,6.63-2.54,13.22-2.54s9.82,1.23,13.25,2.55c3.76,1.45,7.66,2.94,15.37,2.94s11.6-1.49,15.38-2.94c3.42-1.31,6.64-2.55,13.25-2.55h.22v-5.92h-.22c-7.71,0-11.6,1.49-15.38,2.94Zm65-49.69l-.22,.04c-3.08,.58-5.33,1.44-7.53,2.28-3.42,1.31-6.65,2.55-13.26,2.55s-9.83-1.24-13.25-2.55c-3.77-1.45-7.67-2.94-15.37-2.94s-11.6,1.49-15.38,2.94c-3.42,1.31-6.64,2.54-13.25,2.54s-9.83-1.24-13.25-2.55c-3.24-1.24-6.59-2.39-11.75-2.79v-73.24c0-.87,.37-1.71,1.01-2.3,.64-.59,1.46-.88,2.33-.82,.76,.06,1.53,.13,2.3,.21-.09,1.32-.12,1.58-.14,1.75-.01,.12-.02,.19-.04,.52-.06,1.14,.46,2.19,1.49,3.05,1.17,.98,2.67,1.41,2.84,1.46l1.33,.37,.44-6.27c.93,.17,1.85,.36,2.74,.57,.98,.22,1.67,1.14,1.61,2.14-.38,5.97-.6,9.49-.65,10.48-.06,1.15,.44,2.18,1.49,3.05,1.18,.98,2.67,1.41,2.84,1.46l1.33,.37,.97-15.33c.81,.28,1.64,.59,2.46,.91,.85,.33,1.38,1.15,1.32,2.04-.04,.54-.86,13.3-.96,15.35-.06,1.15,.44,2.18,1.49,3.05,1.17,.98,2.67,1.41,2.84,1.46l1.33,.37,1.21-18.96c.9,.48,1.8,.99,2.66,1.51,.64,.38,1,1.1,.95,1.86-.4,6.15-1.09,16.71-1.17,18.43-.06,1.15,.44,2.18,1.49,3.05,1.18,.98,2.67,1.41,2.84,1.46l1.33,.37,1.32-20.43c.92,.75,1.81,1.53,2.66,2.31,.44,.41,.67,.99,.63,1.6-.73,11.22-1.16,17.84-1.23,19.14-.06,1.15,.44,2.18,1.49,3.05,1.18,.98,2.67,1.41,2.84,1.46l1.33,.37,1.22-18.67c1.01,1.34,1.98,2.74,2.87,4.16,.22,.35,.33,.78,.3,1.21l-.03,.55c-.22,3.35-.87,13.55-.97,15.37-.06,1.16,.44,2.18,1.49,3.05,1.18,.98,2.67,1.41,2.84,1.46l1.33,.37,.67-10.58c1.69,4.45,3.04,9.34,4.04,14.56,.24,1.27,.79,2.26,1.62,2.96,1.67,1.38,3.86,1.03,3.88,1.03l1.07-.18-.14-1.08c-3.4-25.51-15.9-44.37-36.17-54.54-12.74-6.39-25.2-7.8-31.83-8.04,1.25-1.03,3.13-2.49,5.58-4.11,.79,1.09,.93,1.3,1.01,1.43,.07,.1,.1,.16,.3,.43,.69,.93,1.73,1.4,3.09,1.4,1.53,0,2.96-.62,3.12-.69l1.26-.56-3.66-5.1c.83-.46,1.66-.9,2.47-1.31,.9-.45,2.02-.19,2.61,.62,3.46,4.75,5.6,7.68,6.2,8.48,.69,.93,1.73,1.4,3.09,1.4,1.53,0,2.96-.62,3.12-.69l1.26-.57-9.05-12.41c.82-.31,1.65-.6,2.47-.87,.86-.29,1.8,0,2.32,.72,1.84,2.53,7.94,10.92,9.07,12.42,.69,.93,1.73,1.4,3.09,1.4,1.53,0,2.96-.62,3.12-.69l1.26-.56-11.18-15.36c1.01-.2,2.02-.39,3.01-.54,.74-.12,1.47,.2,1.92,.82,6.45,8.89,10.11,13.91,10.87,14.93,.69,.93,1.73,1.4,3.09,1.4,1.54,0,2.96-.62,3.11-.69l1.26-.57-12.04-16.57c1.18-.02,2.36,.02,3.52,.08,.6,.03,1.15,.34,1.51,.83,1.67,2.31,10.07,13.89,11.29,15.51,.69,.93,1.73,1.4,3.09,1.4,1.54,0,2.96-.62,3.11-.69l1.26-.56-10.99-15.14c1.63,.38,3.27,.84,4.87,1.37,.4,.13,.75,.39,1,.74,1.92,2.64,8.27,11.37,9.4,12.89,.69,.93,1.73,1.4,3.1,1.4,1.53,0,2.96-.62,3.11-.69l1.26-.57-6.25-8.56c4.14,2.35,8.31,5.24,12.41,8.62,1,.82,2.05,1.24,3.14,1.24,2.09,0,3.49-1.51,3.65-1.69l.71-.82-.8-.74c-18.91-17.46-40.58-23.98-62.67-18.84-13.4,3.11-23.67,9.7-28.84,13.56,.27-1.9,.65-3.88,1.13-5.9,1.31,.25,1.56,.31,1.71,.35,.12,.03,.19,.05,.51,.1,1.14,.2,2.22-.17,3.21-1.1,1.08-1.01,1.69-2.37,1.8-2.63l.53-1.27-6.17-1.21c.29-.89,.59-1.78,.9-2.65,.34-.94,1.34-1.51,2.32-1.33,5.74,1.09,9.31,1.76,10.32,1.94,1.14,.2,2.22-.17,3.21-1.1,1.11-1.04,1.73-2.47,1.8-2.63l.53-1.28-15.09-2.85c.37-.76,.78-1.54,1.2-2.33,.43-.8,1.31-1.23,2.18-1.06,3.09,.59,13.3,2.53,15.11,2.85,1.13,.21,2.22-.17,3.21-1.1,1.09-1.02,1.69-2.37,1.8-2.63l.53-1.28-18.66-3.55c.59-.84,1.21-1.67,1.83-2.46,.46-.58,1.21-.86,1.97-.72,1.64,.32,16.11,3.08,18.15,3.44,1.14,.2,2.22-.17,3.21-1.1,1.07-1.01,1.68-2.36,1.8-2.63l.53-1.28-20.11-3.84c.85-.82,1.73-1.6,2.62-2.35,.46-.38,1.07-.54,1.67-.42l.29,.06c4.58,.88,16.74,3.21,18.55,3.52,1.14,.2,2.22-.17,3.21-1.1,1.13-1.06,1.74-2.48,1.8-2.63l.53-1.27-18.37-3.52c1.45-.84,2.96-1.62,4.49-2.33,.38-.18,.82-.23,1.24-.15,9.04,1.72,14.47,2.75,15.68,2.96,1.14,.2,2.22-.17,3.21-1.1,1.08-1.01,1.69-2.37,1.8-2.63l.53-1.28-10.41-1.97c4.63-1.12,9.65-1.87,14.95-2.21,1.29-.08,2.34-.5,3.14-1.25,1.55-1.45,1.5-3.63,1.5-3.73l-.04-1.09h-1.09c-25.74,.23-46,10.31-58.59,29.16-6.22,9.31-9.34,18.82-10.89,25.46-1.55-6.64-4.67-16.15-10.89-25.46-12.59-18.86-32.85-28.94-58.59-29.15h-1.09s-.04,1.06-.04,1.06c0,.02-.1,2.24,1.5,3.74,.79,.74,1.85,1.16,3.14,1.25,5.3,.34,10.32,1.09,14.95,2.21l-10.41,1.97,.54,1.28c.07,.16,.69,1.59,1.8,2.63,1,.93,2.08,1.3,3.21,1.1,1.25-.22,6.82-1.27,15.68-2.96,.42-.08,.86-.03,1.24,.15,1.53,.71,3.03,1.49,4.49,2.33l-18.37,3.52,.53,1.27c.07,.16,.68,1.58,1.8,2.63,.99,.93,2.07,1.3,3.21,1.1,1.81-.32,13.97-2.65,18.55-3.52l.29-.06c.6-.12,1.21,.04,1.67,.42,.88,.74,1.76,1.53,2.62,2.35l-20.11,3.84,.54,1.28c.07,.16,.68,1.58,1.8,2.63,.98,.92,2.09,1.3,3.21,1.1,1.25-.22,7.53-1.41,18.15-3.44,.75-.14,1.51,.13,1.97,.72,.62,.79,1.23,1.62,1.83,2.45l-18.66,3.55,.54,1.28c.11,.26,.71,1.61,1.8,2.63,1,.93,2.08,1.31,3.21,1.1,1.71-.3,11.14-2.09,15.11-2.85,.87-.17,1.75,.26,2.18,1.06,.42,.77,.82,1.56,1.2,2.33l-15.09,2.85,.53,1.27c.07,.16,.68,1.58,1.8,2.64,.99,.93,2.07,1.3,3.21,1.1,1.01-.18,4.67-.87,10.32-1.94,.98-.19,1.98,.39,2.32,1.33,.31,.86,.61,1.75,.9,2.65l-6.17,1.21,.53,1.27c.07,.16,.68,1.58,1.8,2.64,.99,.93,2.08,1.3,3.21,1.1,.33-.06,.4-.07,.51-.1,.15-.04,.41-.1,1.71-.35,.48,2.02,.85,4,1.13,5.9-5.17-3.87-15.45-10.45-28.84-13.56-22.09-5.13-43.76,1.39-62.67,18.84l-.8,.74,.71,.82c.06,.07,1.49,1.69,3.64,1.69,1.09,0,2.14-.42,3.14-1.24,4.1-3.38,8.27-6.28,12.41-8.62l-6.25,8.57,1.26,.57c.16,.07,1.57,.69,3.11,.69,1.36,0,2.4-.47,3.1-1.4,.53-.7,2.59-3.51,9.4-12.89,.25-.35,.61-.61,1-.74,1.6-.53,3.23-.99,4.87-1.37l-10.99,15.14,1.26,.57c.16,.07,1.58,.69,3.11,.69,1.36,0,2.4-.47,3.09-1.4,1.21-1.62,9.61-13.2,11.29-15.51,.36-.49,.91-.8,1.51-.83,1.15-.07,2.33-.09,3.52-.08l-12.04,16.57,1.26,.57c.16,.07,1.59,.69,3.11,.69,1.36,0,2.4-.47,3.09-1.4,1.2-1.6,9.32-12.79,10.87-14.93,.46-.63,1.19-.94,1.92-.82,1,.15,2.01,.33,3.01,.54l-11.18,15.36,1.27,.57c.16,.07,1.59,.69,3.11,.69,1.36,0,2.4-.47,3.09-1.4,1.01-1.35,6.11-8.36,9.07-12.42,.52-.72,1.46-1.01,2.32-.72,.83,.27,1.66,.57,2.47,.87l-9.05,12.41,1.27,.57c.16,.07,1.59,.69,3.11,.69,1.36,0,2.4-.47,3.09-1.4,.6-.8,2.74-3.73,6.2-8.48,.59-.81,1.71-1.07,2.61-.62,.82,.42,1.65,.86,2.47,1.31l-3.66,5.11,1.26,.57c.16,.07,1.59,.69,3.11,.69,1.36,0,2.4-.47,3.1-1.4,.19-.25,.23-.32,.3-.43,.08-.13,.22-.34,1.01-1.43,2.45,1.62,4.33,3.08,5.58,4.11-6.64,.24-19.09,1.65-31.83,8.04-20.27,10.16-32.77,29.02-36.17,54.54l-.14,1.08,1.08,.18c.23,.03,2.29,.28,3.87-1.03,.84-.7,1.38-1.69,1.63-2.96,.99-5.21,2.35-10.1,4.04-14.56l.67,10.58,1.34-.37c.17-.05,1.67-.49,2.83-1.46,1.05-.87,1.55-1.9,1.49-3.05-.06-1.23-.39-6.44-1-15.92-.03-.42,.08-.85,.3-1.21,.89-1.42,1.85-2.82,2.87-4.16l1.22,18.67,1.33-.37c.17-.05,1.66-.49,2.84-1.46,1.05-.87,1.55-1.9,1.49-3.05-.05-.89-.29-4.91-1.21-18.96v-.18c-.05-.61,.18-1.19,.62-1.6,.84-.78,1.73-1.56,2.66-2.31l1.32,20.43,1.33-.37c.17-.05,1.67-.49,2.83-1.46,1.05-.87,1.55-1.9,1.49-3.05-.08-1.6-.67-10.69-1.17-18.43-.05-.77,.31-1.48,.95-1.86,.87-.53,1.77-1.03,2.66-1.51l1.21,18.95,1.34-.37c.17-.05,1.66-.49,2.83-1.46,1.05-.87,1.55-1.9,1.49-3.05-.06-1.22-.4-6.53-.96-15.35-.06-.89,.47-1.7,1.33-2.04,.81-.32,1.64-.62,2.46-.91l.97,15.33,1.34-.37c.17-.05,1.67-.49,2.83-1.46,1.05-.87,1.55-1.9,1.49-3.05-.05-1.02-.28-4.64-.65-10.48-.06-1,.63-1.92,1.61-2.14,.89-.2,1.81-.39,2.74-.57l.44,6.27,1.33-.37c.17-.05,1.66-.49,2.83-1.46,1.03-.86,1.55-1.91,1.49-3.05-.02-.33-.03-.4-.04-.54-.02-.16-.05-.45-.13-1.73,.74-.08,1.44-.14,2.11-.2,.87-.06,1.7,.22,2.34,.81,.64,.59,1.01,1.43,1.01,2.31v73.55c-3.43,.54-5.93,1.44-8.6,2.46-3.42,1.31-6.64,2.55-13.24,2.55s-9.83-1.24-13.24-2.55c-3.77-1.45-7.66-2.94-15.37-2.94s-11.6,1.49-15.38,2.94c-3.42,1.31-6.64,2.55-13.24,2.55s-9.83-1.24-13.25-2.55c-3.01-1.15-6.12-2.35-11.25-2.78l-.22-.02-.5,5.91,.22,.02c4.3,.36,6.88,1.35,9.62,2.41,3.77,1.45,7.67,2.94,15.37,2.94s11.6-1.49,15.38-2.94c3.42-1.31,6.64-2.54,13.25-2.54s9.83,1.24,13.25,2.55c3.77,1.45,7.66,2.94,15.36,2.94s11.6-1.49,15.38-2.94c3.41-1.31,6.64-2.54,13.24-2.54s9.83,1.24,13.25,2.55c3.77,1.45,7.67,2.94,15.37,2.94s11.6-1.49,15.38-2.94c3.42-1.31,6.64-2.54,13.25-2.54s9.83,1.24,13.25,2.55c3.77,1.45,7.66,2.94,15.37,2.94s11.61-1.49,15.39-2.94c2.03-.78,3.94-1.51,6.49-1.99l.22-.04-1.09-5.83ZM200,73.63c-69.85,0-126.68,56.83-126.68,126.68,0,20.19,4.87,40.27,14.07,58.09l7.01-3.62c-8.75-16.94-13.19-35.26-13.19-54.46,0-65.5,53.29-118.79,118.79-118.79s118.79,53.29,118.79,118.79c0,19.2-4.44,37.53-13.19,54.46l7.01,3.62c9.21-17.82,14.07-37.9,14.07-58.09,0-69.85-56.83-126.68-126.68-126.68Z"/></g></svg>